<?xml version="1.0" encoding="UTF-8"?>
<svg width="700pt" height="700pt" version="1.1" viewBox="0 0 700 700" xmlns="http://www.w3.org/2000/svg">
 <path d="m466.67 163.33h-303.34c-12.375 0-24.246 4.918-32.996 13.668-8.7539 8.7539-13.668 20.625-13.668 33v140c0 12.375 4.9141 24.246 13.668 33 8.75 8.75 20.621 13.668 32.996 13.668h303.34c12.375 0 24.246-4.918 32.996-13.668 8.7539-8.7539 13.668-20.625 13.668-33v-140c0-12.375-4.9141-24.246-13.668-33-8.75-8.75-20.621-13.668-32.996-13.668zm0 186.67h-303.34v-140h303.34zm93.332-116.67c-6.1875 0-12.125 2.4609-16.5 6.8359s-6.832 10.309-6.832 16.5v46.668-0.003907c0 8.3359 4.4453 16.039 11.664 20.207 7.2188 4.168 16.117 4.168 23.336 0 7.2188-4.168 11.664-11.871 11.664-20.207v-46.664c0-6.1914-2.457-12.125-6.832-16.5s-10.312-6.8359-16.5-6.8359z"/>
</svg>
